<svg id="instagram" xmlns="http://www.w3.org/2000/svg" width="19.543" height="19.547" viewBox="0 0 19.543 19.547">
  <path id="Trazado_45" data-name="Trazado 45" d="M19.943,5.747a7.142,7.142,0,0,0-.454-2.371,5.007,5.007,0,0,0-2.86-2.86A7.161,7.161,0,0,0,14.257.061C13.211.011,12.878,0,10.225,0S7.238.011,6.2.057A7.144,7.144,0,0,0,3.825.512a4.769,4.769,0,0,0-1.734,1.13A4.813,4.813,0,0,0,.965,3.372,7.162,7.162,0,0,0,.51,5.743C.461,6.789.449,7.121.449,9.775S.461,12.761.506,13.8a7.142,7.142,0,0,0,.454,2.371,5.006,5.006,0,0,0,2.86,2.86,7.162,7.162,0,0,0,2.371.454c1.042.046,1.375.057,4.028.057s2.986-.011,4.028-.057a7.141,7.141,0,0,0,2.371-.454,5,5,0,0,0,2.86-2.86,7.167,7.167,0,0,0,.454-2.371c.046-1.042.057-1.375.057-4.029S19.988,6.789,19.943,5.747Zm-1.76,7.981a5.358,5.358,0,0,1-.336,1.814A3.242,3.242,0,0,1,15.99,17.4a5.377,5.377,0,0,1-1.814.336c-1.031.046-1.34.057-3.948.057s-2.921-.011-3.948-.057A5.355,5.355,0,0,1,4.466,17.4a3.008,3.008,0,0,1-1.123-.729,3.039,3.039,0,0,1-.729-1.123,5.378,5.378,0,0,1-.336-1.814c-.046-1.031-.057-1.34-.057-3.948s.011-2.921.057-3.948a5.355,5.355,0,0,1,.336-1.814A2.971,2.971,0,0,1,3.348,2.9,3.034,3.034,0,0,1,4.47,2.169a5.38,5.38,0,0,1,1.814-.336c1.031-.046,1.34-.057,3.948-.057s2.921.011,3.948.057a5.358,5.358,0,0,1,1.814.336,3.006,3.006,0,0,1,1.123.729,3.038,3.038,0,0,1,.729,1.123,5.379,5.379,0,0,1,.336,1.814c.046,1.031.057,1.34.057,3.948S18.228,12.7,18.182,13.727Zm0,0" transform="translate(-0.449 0)" fill="#002D67"/>
  <path id="Trazado_46" data-name="Trazado 46" d="M129.971,124.5a5.021,5.021,0,1,0,5.021,5.021A5.023,5.023,0,0,0,129.971,124.5Zm0,8.279a3.257,3.257,0,1,1,3.257-3.257A3.258,3.258,0,0,1,129.971,132.779Zm0,0" transform="translate(-120.195 -119.746)" fill="#002D67"/>
  <path id="Trazado_47" data-name="Trazado 47" d="M364.794,89.774a1.172,1.172,0,1,1-1.172-1.172A1.172,1.172,0,0,1,364.794,89.774Zm0,0" transform="translate(-348.626 -85.218)" fill="#002D67"/>
</svg>
