<svg xmlns="http://www.w3.org/2000/svg" width="18.474" height="18.489" viewBox="0 0 18.474 18.489">
  <path id="WA_Logo" data-name="WA Logo" d="M1.305,13.742A9.16,9.16,0,0,1,9.276,0a9.165,9.165,0,1,1,0,18.33h0a9.219,9.219,0,0,1-4.4-1.115L0,18.489Zm4.076,1.98a7.659,7.659,0,0,0,3.891,1.061h0a7.641,7.641,0,0,0,7.645-7.615A7.631,7.631,0,0,0,9.279,1.547,7.613,7.613,0,0,0,2.8,13.214l.182.288-.772,2.81L5.1,15.557Zm5.4-2.288a13.245,13.245,0,0,1-1.31-.482A10.229,10.229,0,0,1,5.54,9.495,4.444,4.444,0,0,1,4.6,7.126a2.563,2.563,0,0,1,.8-1.91.846.846,0,0,1,.613-.286c.153,0,.307,0,.44.008h.052c.134,0,.3,0,.465.392.192.458.651,1.585.709,1.7a.42.42,0,0,1,.019.4,1.564,1.564,0,0,1-.23.382c-.115.134-.241.3-.345.4s-.235.238-.1.467a6.9,6.9,0,0,0,1.279,1.586A6.284,6.284,0,0,0,10.156,11.4c.23.115.364.1.5-.057s.575-.669.728-.9.306-.191.517-.115,1.341.63,1.571.745.383.172.44.267a1.906,1.906,0,0,1-.134,1.089,2.367,2.367,0,0,1-1.551,1.089,3.782,3.782,0,0,1-.558.044A2.926,2.926,0,0,1,10.777,13.434Z" fill="#717171"/>
</svg>
