<svg xmlns="http://www.w3.org/2000/svg" width="19.329" height="15.709" viewBox="0 0 19.329 15.709">
  <path id="twitter" d="M6.161,11.885A11.207,11.207,0,0,0,17.444.6q0-.257-.011-.513a8.07,8.07,0,0,0,1.978-2.054,7.912,7.912,0,0,1-2.277.624,3.981,3.981,0,0,0,1.744-2.194,7.954,7.954,0,0,1-2.518.963,3.961,3.961,0,0,0-2.895-1.253A3.966,3.966,0,0,0,9.5.141a3.962,3.962,0,0,0,.1.9A11.259,11.259,0,0,1,1.427-3.1,3.956,3.956,0,0,0,.89-1.1,3.963,3.963,0,0,0,2.655,2.2a3.935,3.935,0,0,1-1.8-.5c0,.017,0,.033,0,.051A3.967,3.967,0,0,0,4.04,5.638a3.98,3.98,0,0,1-1.046.139,3.941,3.941,0,0,1-.745-.072,3.97,3.97,0,0,0,3.7,2.754,7.956,7.956,0,0,1-4.925,1.7A8.071,8.071,0,0,1,.082,10.1a11.226,11.226,0,0,0,6.079,1.781" transform="translate(-0.082 3.824)" fill="#002D67"/>
</svg>
