<svg xmlns="http://www.w3.org/2000/svg" width="19.941" height="19.941" viewBox="0 0 19.941 19.941">
  <g id="Grupo_194" data-name="Grupo 194" transform="translate(-452.54 -111.799)">
    <path id="Trazado_362" data-name="Trazado 362" d="M472.481,121.77a9.971,9.971,0,1,0-11.522,9.85v-6.97h-2.548V121.77h2.548v-2.2a3.517,3.517,0,0,1,3.758-3.885,14.1,14.1,0,0,1,2.223.21v2.437h-1.249a1.453,1.453,0,0,0-1.634,1.564l0,1.87h2.769l-.443,2.881h-2.327v6.97a9.973,9.973,0,0,0,8.419-9.85" fill="#002D67"/>
    <path id="Trazado_363" data-name="Trazado 363" d="M487.326,138.518l.443-2.88H485l0-1.871a1.453,1.453,0,0,1,1.634-1.564h1.249v-2.437a14.042,14.042,0,0,0-2.223-.21,3.517,3.517,0,0,0-3.758,3.885v2.2h-2.549v2.88H481.9v6.97a10.043,10.043,0,0,0,3.1,0v-6.97Z" transform="translate(-20.938 -13.868)" fill="#00A9EC00"/>
  </g>
</svg>
